<svg xmlns="http://www.w3.org/2000/svg" width="2240" height="1260" viewBox="0 0 1680 945" version="1.2"><defs><clipPath id="a"><path d="M215 422h99v50.5h-99zm0 0"/></clipPath><clipPath id="b"><path d="M257 94.5h14V137h-14zm0 0"/></clipPath><clipPath id="c"><path d="M94.5 272H137v15H94.5zm0 0"/></clipPath><clipPath id="d"><path d="M386 266h42.25v14H386zm0 0"/></clipPath><clipPath id="e"><path d="M863 611h93.68v177H863zm0 0"/></clipPath><clipPath id="f"><path d="M706 567.402h115v264H706zm0 0"/></clipPath><clipPath id="g"><path d="M1093 189.402h492.742V497H1093zm0 0"/></clipPath><clipPath id="h"><path d="M1227 541h225v26.402h-225zm0 0"/></clipPath><clipPath id="i"><path d="M546.14 0h293.72v353.426H546.14zm0 0"/></clipPath></defs><path d="M264.328 165.285c-55.508 0-100.515 44.98-100.515 100.469 0 34.922 17.843 77.32 44.898 103.957v4.754h111.238v-4.754c27.059-26.637 44.899-69.035 44.899-103.957 0-55.488-45.004-100.469-100.52-100.469" fill="#3b3400"/><g clip-path="url(#a)"><path d="M215.383 432.371c0 15.473 12.597 28.063 28.082 28.063h.433c3 0 5.625 1.996 6.43 4.882.977 3.528 6.48 7.176 14 7.176 7.524 0 13.031-3.644 14.004-7.168a6.674 6.674 0 016.43-4.89h.437c15.48 0 28.074-12.59 28.074-28.063v-9.93h-97.89v9.93" fill="#3b3400"/></g><path d="M215.383 409.105h97.89v-21.304h-97.89v21.304" fill="#3b3400"/><g clip-path="url(#b)"><path d="M264.324 136.004a6.668 6.668 0 006.672-6.668v-28.18a6.668 6.668 0 00-6.672-6.668 6.67 6.67 0 00-6.672 6.668v28.18a6.67 6.67 0 006.672 6.668" fill="#3b3400"/></g><g clip-path="url(#c)"><path d="M129.488 272.75h-28.195a6.67 6.67 0 00-6.672 6.668 6.673 6.673 0 006.672 6.668h28.195a6.67 6.67 0 006.668-6.668 6.667 6.667 0 00-6.668-6.668" fill="#3b3400"/></g><path d="M171.113 181.414a6.657 6.657 0 00.004-9.426l-19.933-19.93a6.67 6.67 0 10-9.434 9.434l19.934 19.922a6.65 6.65 0 004.714 1.953 6.649 6.649 0 004.715-1.953" fill="#3b3400"/><g clip-path="url(#d)"><path d="M421.469 266.082h-28.192a6.67 6.67 0 00-6.672 6.668 6.673 6.673 0 006.672 6.668h28.192a6.668 6.668 0 100-13.336" fill="#3b3400"/></g><path d="M374.176 148.625l-19.938 19.93a6.667 6.667 0 000 9.425 6.652 6.652 0 004.719 1.958 6.652 6.652 0 004.719-1.958l19.937-19.925a6.672 6.672 0 000-9.43 6.682 6.682 0 00-9.437 0" fill="#3b3400"/><g clip-path="url(#e)"><path d="M875.754 612.867l-8.797 7.332c-2.934 2.934-4.398 8.801-1.465 11.735l55.707 67.468-55.707 67.465c-2.933 2.934-2.933 8.801 1.465 11.735l8.797 7.332c2.93 2.933 8.793 2.933 11.726-1.465l67.438-80.668c1.465-2.934 1.465-5.867 0-8.801l-67.438-80.664c-2.933-2.934-7.328-4.402-11.726-1.469zm0 0" fill="#00243b"/></g><path d="M655.855 785.934l8.793-7.332c2.934-2.934 4.399-8.801 1.47-11.735l-57.177-67.465 55.707-67.468c2.934-2.934 2.934-8.801-1.464-11.735l-7.329-7.332c-4.398-2.933-8.796-1.465-11.73 1.469L576.691 695c-1.468 2.934-1.468 5.867 0 8.8l67.434 80.669c2.934 2.933 7.332 4.398 11.73 1.465zm0 0" fill="#00243b"/><g clip-path="url(#f)"><path d="M789.258 574.734l-82.094 246.399c-1.465 5.867 2.93 10.27 7.328 10.27h13.196c4.398 0 8.796-2.934 10.261-7.337l82.094-246.398c1.469-5.867-2.93-10.266-7.328-10.266H799.52c-4.399 0-8.793 2.934-10.262 7.332zm0 0" fill="#00243b"/></g><path d="M1397.422 474.363h-116.02v79.926h116.02v-79.926" fill="#393536"/><g clip-path="url(#g)"><path d="M1573.828 466.172a4.842 4.842 0 01-4.836 4.836h-459.156c-2.668 0-4.844-2.172-4.844-4.836V206.035c0-2.672 2.176-4.832 4.844-4.832h459.156a4.834 4.834 0 014.836 4.832zm-4.836-276.738h-459.156c-9.184 0-16.621 7.43-16.621 16.601v273.977c0 9.164 7.437 16.601 16.62 16.601h459.157c9.176 0 16.613-7.437 16.613-16.601V206.035c0-9.172-7.437-16.601-16.613-16.601" fill="#393536"/></g><g clip-path="url(#h)"><path d="M1451.445 567.367v-18.234c0-4.164-3.386-7.547-7.562-7.547h-208.934c-4.176 0-7.57 3.383-7.57 7.547v18.234h224.066" fill="#393536"/></g><path d="M1166.547 403.344c-.914.894-3.727.226-4.906.086a25.918 25.918 0 01-4.993-1.082c-2.742-.907-5.289-2.395-7.285-4.493-4.957-5.218-5.492-12.5-5.625-19.335-.172-8.512.625-17.239-.808-25.665-.95-5.617-2.973-11.328-7.157-15.367a18 18 0 00-1.359-1.195c-.367-.285-.238-.656-.238-1.117 0-.88 1.625-1.828 2.23-2.488 1.848-2 3.25-4.364 4.293-6.864 3.719-8.965 3.024-18.945 3.024-28.445 0-5.934-.243-12.113 1.375-17.879 1.664-5.945 6.125-10.266 12.039-11.93 1.539-.433 3.12-.71 4.707-.87 1.261-.137 4.136-.778 5.172.14.882.777.379 3.613.379 4.594v4.925c0 1.754-1.622 1.504-2.907 1.579-1.668.101-3.367.378-4.91 1.05-4.523 1.965-5.422 7.14-5.715 11.563-.379 5.726.356 11.457.64 17.168.497 9.691-.202 21.191-8.058 28.047 5.508 5.03 7.442 12.867 7.89 20.039.423 6.629-.565 13.203-.565 19.816 0 3.746.14 7.555 1.53 11.09 1.31 3.351 4.532 4.742 7.923 5.101 1.175.11 3.687-.433 4.097 1.086.153.586.075 1.297.075 1.899v6.168c0 1.246-.02 1.394-.848 2.379m339.609-136.535c.914-.887 3.727-.227 4.907-.079 1.699.196 3.378.543 5 1.079 2.742.91 5.28 2.39 7.285 4.488 4.953 5.215 5.492 12.5 5.62 19.332.16 8.52-.616 17.25.81 25.676.96 5.61 2.972 11.328 7.156 15.363.433.414.89.816 1.359 1.191.371.29.234.66.234 1.114 0 .882-1.617 1.832-2.234 2.5-1.844 1.992-3.238 4.363-4.285 6.863-3.719 8.957-3.016 18.945-3.016 28.437 0 5.934.238 12.114-1.383 17.88-1.668 5.949-6.12 10.265-12.035 11.929a27.286 27.286 0 01-4.71.879c-1.266.129-4.137.77-5.173-.149-.875-.773-.382-3.605-.382-4.593v-4.922c0-1.758 1.625-1.504 2.906-1.586 1.68-.098 3.37-.383 4.918-1.043 4.515-1.961 5.418-7.14 5.71-11.566.376-5.735-.347-11.457-.652-17.168-.488-9.684.223-21.184 8.07-28.055-5.503-5.027-7.437-12.852-7.894-20.027-.414-6.633.574-13.204.574-19.813 0-3.754-.144-7.562-1.53-11.086-1.313-3.36-4.524-4.754-7.923-5.105-1.168-.118-3.695.418-4.093-1.086-.16-.594-.086-1.305-.086-1.91v-6.16c0-1.255.027-1.387.847-2.383m-282.793-38.512h-48.343v12.531h48.343v-12.531m4.383 0v12.531h38.012v-12.531h-38.012m43.852 0v12.531h85.507v-12.531h-85.507m-63.973-4.785h-32.605v-12.535h32.605v12.535m41.563 24.628h-21.172v12.54h21.171v-12.54m198.192 0h-191.363v12.54h191.363v-12.54m7.316 0v12.54h49.114v-12.54h-49.114m-28.75 19.848h-154.261v12.532h154.261v-12.532m50.676 0h-44.832v12.532h44.832v-12.532m-237.18 19.852h-11.425v12.539h11.425v-12.54m8.774.001v12.539h240.098v-12.54h-240.098m246.437.001v12.539h9.157v-12.54h-9.157m-292.242 19.852h-27.39v12.532h27.39V307.69m39.961.001h-33.14v12.532h33.14V307.69m9.739.001v12.532h13.956V307.69h-13.957m135.817 19.85h-100.242v12.456h-8.77V327.54h-50.898v12.535h159.91V327.54m1.945 0v12.534h16.777V327.54h-16.777m-127.531 19.85h-8.598v12.532h8.598V347.39m39.969 0h-33.63v12.532h33.63V347.39m146.535 0h-141.66v12.532h141.66V347.39m7.804 0v12.532h33.59V347.39h-33.59m-167.015 19.848h-35.89v12.535h35.89v-12.535m129.972 0h-123.632v12.535h123.632v-12.535m14.622 0v12.535h69.582v-12.535h-69.582m10.226 19.852h-126.555v12.535h126.555V387.09m-135.813 0h-54.898v12.535h54.899V387.09m68.855 32.387h-149.48v-12.543h149.48v12.543m-184.348 7.316h-18.128v12.539h18.128v-12.539m6.817 0v12.539h225.707v-12.539h-225.707m7.66 32.391h-32.605V446.64h32.605v12.543" fill="#393536"/><g clip-path="url(#i)"><path d="M690.191 57.676v-69.832h-88.578V-24.57h182.79v12.414h-81.778v69.832h19.91v46.754h46.887v52.28h28.289c1.059-3.433 2.914-6.51 5.406-8.98a21.333 21.333 0 0115.207-6.312c5.95 0 11.332 2.402 15.203 6.312a21.41 21.41 0 016.325 15.215c0 5.953-2.414 11.34-6.325 15.239-3.87 3.914-9.254 6.316-15.203 6.316a21.32 21.32 0 01-15.207-6.316 21.34 21.34 0 01-5.418-9.07h-28.277v74.195c3.379 1.02 6.402 2.89 8.867 5.328 3.871 3.902 6.285 9.3 6.285 15.226a21.583 21.583 0 01-6.285 15.254c-3.898 3.899-9.305 6.328-15.219 6.328-5.965 0-11.343-2.43-15.242-6.328a21.489 21.489 0 01-6.308-15.254c0-5.925 2.41-11.324 6.308-15.226 2.531-2.504 5.645-4.426 9.16-5.438V116.844h-46.875V70.117h-27.36v68.133h40.567v95.43h-35.633v78.144a21.688 21.688 0 017.395 4.84c3.91 3.887 6.309 9.274 6.309 15.238a21.46 21.46 0 01-6.309 15.243 21.439 21.439 0 01-15.203 6.285 21.492 21.492 0 01-15.234-6.285c-3.883-3.915-6.313-9.286-6.313-15.243 0-5.964 2.43-11.351 6.313-15.238 2.863-2.851 6.511-4.918 10.59-5.809v-89.62h35.66v-70.57h-28.168v30.331h-58.989v35.758a21.196 21.196 0 017.86 5.012c3.898 3.902 6.324 9.285 6.324 15.226 0 5.942-2.426 11.328-6.324 15.227-3.899 3.914-9.266 6.34-15.22 6.34-5.937 0-11.308-2.426-15.23-6.34a21.511 21.511 0 01-6.296-15.227c0-5.941 2.41-11.324 6.296-15.226 2.774-2.758 6.27-4.77 10.18-5.703v-47.508h59.004v-62.153h-32.465v36.891h-49.55a21.54 21.54 0 01-5.422 9.105c-3.899 3.903-9.282 6.317-15.215 6.317a21.45 21.45 0 01-15.223-6.317c-3.898-3.898-6.324-9.28-6.324-15.222 0-5.953 2.426-11.352 6.324-15.254a21.502 21.502 0 0115.223-6.3c5.933 0 11.316 2.413 15.215 6.3a21.764 21.764 0 015.37 8.941h37.196V93.965h44.871v-36.29zm66.426 212.66a9.173 9.173 0 006.453 2.68c2.492 0 4.774-1.063 6.418-2.68a9.108 9.108 0 002.676-6.473 9.15 9.15 0 00-2.676-6.457c-1.644-1.633-3.926-2.668-6.418-2.668a9.098 9.098 0 00-6.453 2.668 9.144 9.144 0 00-2.691 6.457 9.105 9.105 0 002.691 6.473zm55.278-100.93a9.097 9.097 0 006.43 2.664c2.519 0 4.8-1.035 6.44-2.664a9.074 9.074 0 002.68-6.46 9.06 9.06 0 00-2.68-6.462 9.08 9.08 0 00-6.44-2.652 9.038 9.038 0 00-6.43 2.652 9.07 9.07 0 00-2.692 6.461c0 2.52 1.02 4.79 2.692 6.461zm-138.477 168.93a9.09 9.09 0 006.46 2.695c2.505 0 4.77-1.039 6.442-2.695a9.034 9.034 0 002.664-6.434 9.04 9.04 0 00-2.664-6.445 9.056 9.056 0 00-6.441-2.68c-2.531 0-4.813 1.008-6.461 2.68a9.057 9.057 0 00-2.664 6.445 9.05 9.05 0 002.664 6.434zm-63.48-94.895a9.117 9.117 0 006.44 2.664 9.09 9.09 0 006.442-2.664 9.06 9.06 0 002.668-6.449c0-2.508-1.023-4.773-2.668-6.445-1.629-1.645-3.933-2.652-6.441-2.652a9.09 9.09 0 00-6.442 2.652c-1.656 1.672-2.68 3.937-2.68 6.445a9.022 9.022 0 002.68 6.45zm-48.704-99.82a9.142 9.142 0 006.446 2.668c2.5 0 4.793-1.035 6.441-2.668a9.053 9.053 0 002.66-6.445 9.159 9.159 0 00-2.66-6.473 9.111 9.111 0 00-6.441-2.652c-2.508 0-4.813 1.008-6.446 2.652-1.648 1.668-2.68 3.953-2.68 6.473s1.032 4.8 2.68 6.445" fill="#205b00"/></g></svg>