<svg xmlns="http://www.w3.org/2000/svg" xmlns:xlink="http://www.w3.org/1999/xlink" width="2240" height="1260" version="1.2" viewBox="0 0 1680 945"><defs><clipPath id="clip1"><path d="M 215 422 L 314 422 L 314 472.5 L 215 472.5 Z M 215 422"/></clipPath><clipPath id="clip2"><path d="M 257 94.5 L 271 94.5 L 271 137 L 257 137 Z M 257 94.5"/></clipPath><clipPath id="clip3"><path d="M 94.5 272 L 137 272 L 137 287 L 94.5 287 Z M 94.5 272"/></clipPath><clipPath id="clip4"><path d="M 386 266 L 428.25 266 L 428.25 280 L 386 280 Z M 386 266"/></clipPath><clipPath id="clip5"><path d="M 863 611 L 956.679688 611 L 956.679688 788 L 863 788 Z M 863 611"/></clipPath><clipPath id="clip6"><path d="M 706 567.402344 L 821 567.402344 L 821 831.402344 L 706 831.402344 Z M 706 567.402344"/></clipPath><clipPath id="clip7"><path d="M 1093 189.402344 L 1585.742188 189.402344 L 1585.742188 497 L 1093 497 Z M 1093 189.402344"/></clipPath><clipPath id="clip8"><path d="M 1227 541 L 1452 541 L 1452 567.402344 L 1227 567.402344 Z M 1227 541"/></clipPath><clipPath id="clip9"><path d="M 546.140625 0 L 839.859375 0 L 839.859375 353.425781 L 546.140625 353.425781 Z M 546.140625 0"/></clipPath></defs><g id="surface1"><path style="stroke:none;fill-rule:nonzero;fill:#3b3400;fill-opacity:1" d="M 264.328125 165.285156 C 208.820312 165.285156 163.8125 210.265625 163.8125 265.753906 C 163.8125 300.675781 181.65625 343.074219 208.710938 369.710938 L 208.710938 374.464844 L 319.949219 374.464844 L 319.949219 369.710938 C 347.007812 343.074219 364.847656 300.675781 364.847656 265.753906 C 364.847656 210.265625 319.84375 165.285156 264.328125 165.285156"/><g clip-path="url(#clip1)" clip-rule="nonzero"><path style="stroke:none;fill-rule:nonzero;fill:#3b3400;fill-opacity:1" d="M 215.382812 432.371094 C 215.382812 447.84375 227.980469 460.433594 243.464844 460.433594 L 243.898438 460.433594 C 246.898438 460.433594 249.523438 462.429688 250.328125 465.316406 C 251.304688 468.84375 256.808594 472.492188 264.328125 472.492188 C 271.851562 472.492188 277.359375 468.847656 278.332031 465.324219 C 279.132812 462.433594 281.765625 460.433594 284.761719 460.433594 L 285.199219 460.433594 C 300.679688 460.433594 313.273438 447.84375 313.273438 432.371094 L 313.273438 422.441406 L 215.382812 422.441406 L 215.382812 432.371094"/></g><path style="stroke:none;fill-rule:nonzero;fill:#3b3400;fill-opacity:1" d="M 215.382812 409.105469 L 313.273438 409.105469 L 313.273438 387.800781 L 215.382812 387.800781 L 215.382812 409.105469"/><g clip-path="url(#clip2)" clip-rule="nonzero"><path style="stroke:none;fill-rule:nonzero;fill:#3b3400;fill-opacity:1" d="M 264.324219 136.003906 C 268.011719 136.003906 270.996094 133.019531 270.996094 129.335938 L 270.996094 101.15625 C 270.996094 97.472656 268.011719 94.488281 264.324219 94.488281 C 260.640625 94.488281 257.652344 97.472656 257.652344 101.15625 L 257.652344 129.335938 C 257.652344 133.019531 260.640625 136.003906 264.324219 136.003906"/></g><g clip-path="url(#clip3)" clip-rule="nonzero"><path style="stroke:none;fill-rule:nonzero;fill:#3b3400;fill-opacity:1" d="M 129.488281 272.75 L 101.292969 272.75 C 97.609375 272.75 94.621094 275.734375 94.621094 279.417969 C 94.621094 283.097656 97.609375 286.085938 101.292969 286.085938 L 129.488281 286.085938 C 133.171875 286.085938 136.15625 283.097656 136.15625 279.417969 C 136.15625 275.734375 133.171875 272.75 129.488281 272.75"/></g><path style="stroke:none;fill-rule:nonzero;fill:#3b3400;fill-opacity:1" d="M 171.113281 181.414062 C 173.722656 178.8125 173.722656 174.589844 171.117188 171.988281 L 151.183594 152.058594 C 148.578125 149.457031 144.355469 149.457031 141.75 152.058594 C 139.144531 154.664062 139.144531 158.882812 141.75 161.492188 L 161.683594 181.414062 C 162.984375 182.714844 164.691406 183.367188 166.398438 183.367188 C 168.105469 183.367188 169.8125 182.714844 171.113281 181.414062"/><g clip-path="url(#clip4)" clip-rule="nonzero"><path style="stroke:none;fill-rule:nonzero;fill:#3b3400;fill-opacity:1" d="M 421.46875 266.082031 L 393.277344 266.082031 C 389.59375 266.082031 386.605469 269.066406 386.605469 272.75 C 386.605469 276.429688 389.59375 279.417969 393.277344 279.417969 L 421.46875 279.417969 C 425.15625 279.417969 428.140625 276.429688 428.140625 272.75 C 428.140625 269.066406 425.15625 266.082031 421.46875 266.082031"/></g><path style="stroke:none;fill-rule:nonzero;fill:#3b3400;fill-opacity:1" d="M 374.175781 148.625 L 354.238281 168.554688 C 351.636719 171.15625 351.636719 175.378906 354.238281 177.980469 C 355.542969 179.285156 357.25 179.9375 358.957031 179.9375 C 360.664062 179.9375 362.371094 179.285156 363.675781 177.980469 L 383.613281 158.054688 C 386.214844 155.453125 386.214844 151.230469 383.613281 148.625 C 381.007812 146.023438 376.78125 146.023438 374.175781 148.625"/><g clip-path="url(#clip5)" clip-rule="nonzero"><path style="stroke:none;fill-rule:nonzero;fill:#00243b;fill-opacity:1" d="M 875.753906 612.867188 L 866.957031 620.199219 C 864.023438 623.132812 862.558594 629 865.492188 631.933594 L 921.199219 699.402344 L 865.492188 766.867188 C 862.558594 769.800781 862.558594 775.667969 866.957031 778.601562 L 875.753906 785.933594 C 878.683594 788.867188 884.546875 788.867188 887.480469 784.46875 L 954.917969 703.800781 C 956.382812 700.867188 956.382812 697.933594 954.917969 695 L 887.480469 614.335938 C 884.546875 611.402344 880.152344 609.933594 875.753906 612.867188 Z M 875.753906 612.867188"/></g><path style="stroke:none;fill-rule:nonzero;fill:#00243b;fill-opacity:1" d="M 655.855469 785.933594 L 664.648438 778.601562 C 667.582031 775.667969 669.046875 769.800781 666.117188 766.867188 L 608.941406 699.402344 L 664.648438 631.933594 C 667.582031 629 667.582031 623.132812 663.183594 620.199219 L 655.855469 612.867188 C 651.457031 609.933594 647.058594 611.402344 644.125 614.335938 L 576.691406 695 C 575.222656 697.933594 575.222656 700.867188 576.691406 703.800781 L 644.125 784.46875 C 647.058594 787.402344 651.457031 788.867188 655.855469 785.933594 Z M 655.855469 785.933594"/><g clip-path="url(#clip6)" clip-rule="nonzero"><path style="stroke:none;fill-rule:nonzero;fill:#00243b;fill-opacity:1" d="M 789.257812 574.734375 L 707.164062 821.132812 C 705.699219 827 710.09375 831.402344 714.492188 831.402344 L 727.6875 831.402344 C 732.085938 831.402344 736.484375 828.46875 737.949219 824.066406 L 820.042969 577.667969 C 821.511719 571.800781 817.113281 567.402344 812.714844 567.402344 L 799.519531 567.402344 C 795.121094 567.402344 790.726562 570.335938 789.257812 574.734375 Z M 789.257812 574.734375"/></g><path style="stroke:none;fill-rule:nonzero;fill:#393536;fill-opacity:1" d="M 1397.421875 474.363281 L 1281.402344 474.363281 L 1281.402344 554.289062 L 1397.421875 554.289062 L 1397.421875 474.363281"/><g clip-path="url(#clip7)" clip-rule="nonzero"><path style="stroke:none;fill-rule:nonzero;fill:#393536;fill-opacity:1" d="M 1573.828125 466.171875 C 1573.828125 468.835938 1571.660156 471.007812 1568.992188 471.007812 L 1109.835938 471.007812 C 1107.167969 471.007812 1104.992188 468.835938 1104.992188 466.171875 L 1104.992188 206.035156 C 1104.992188 203.363281 1107.167969 201.203125 1109.835938 201.203125 L 1568.992188 201.203125 C 1571.660156 201.203125 1573.828125 203.363281 1573.828125 206.035156 Z M 1568.992188 189.433594 L 1109.835938 189.433594 C 1100.652344 189.433594 1093.214844 196.863281 1093.214844 206.035156 L 1093.214844 480.011719 C 1093.214844 489.175781 1100.652344 496.613281 1109.835938 496.613281 L 1568.992188 496.613281 C 1578.167969 496.613281 1585.605469 489.175781 1585.605469 480.011719 L 1585.605469 206.035156 C 1585.605469 196.863281 1578.167969 189.433594 1568.992188 189.433594"/></g><g clip-path="url(#clip8)" clip-rule="nonzero"><path style="stroke:none;fill-rule:nonzero;fill:#393536;fill-opacity:1" d="M 1451.445312 567.367188 L 1451.445312 549.132812 C 1451.445312 544.96875 1448.058594 541.585938 1443.882812 541.585938 L 1234.949219 541.585938 C 1230.773438 541.585938 1227.378906 544.96875 1227.378906 549.132812 L 1227.378906 567.367188 L 1451.445312 567.367188"/></g><path style="stroke:none;fill-rule:nonzero;fill:#393536;fill-opacity:1" d="M 1166.546875 403.34375 C 1165.632812 404.238281 1162.820312 403.570312 1161.640625 403.429688 C 1159.949219 403.226562 1158.265625 402.878906 1156.648438 402.347656 C 1153.90625 401.441406 1151.359375 399.953125 1149.363281 397.855469 C 1144.40625 392.636719 1143.871094 385.355469 1143.738281 378.519531 C 1143.566406 370.007812 1144.363281 361.28125 1142.929688 352.855469 C 1141.980469 347.238281 1139.957031 341.527344 1135.773438 337.488281 C 1135.34375 337.070312 1134.886719 336.667969 1134.414062 336.292969 C 1134.046875 336.007812 1134.175781 335.636719 1134.175781 335.175781 C 1134.175781 334.296875 1135.800781 333.347656 1136.40625 332.6875 C 1138.253906 330.6875 1139.65625 328.324219 1140.699219 325.824219 C 1144.417969 316.859375 1143.722656 306.878906 1143.722656 297.378906 C 1143.722656 291.445312 1143.480469 285.265625 1145.097656 279.5 C 1146.761719 273.554688 1151.222656 269.234375 1157.136719 267.570312 C 1158.675781 267.136719 1160.257812 266.859375 1161.84375 266.699219 C 1163.105469 266.5625 1165.980469 265.921875 1167.015625 266.839844 C 1167.898438 267.617188 1167.394531 270.453125 1167.394531 271.433594 C 1167.394531 273.082031 1167.394531 274.71875 1167.394531 276.359375 C 1167.394531 278.113281 1165.773438 277.863281 1164.488281 277.9375 C 1162.820312 278.039062 1161.121094 278.316406 1159.578125 278.988281 C 1155.054688 280.953125 1154.15625 286.128906 1153.863281 290.550781 C 1153.484375 296.277344 1154.21875 302.007812 1154.503906 307.71875 C 1155 317.410156 1154.300781 328.910156 1146.445312 335.765625 C 1151.953125 340.796875 1153.886719 348.632812 1154.335938 355.804688 C 1154.757812 362.433594 1153.769531 369.007812 1153.769531 375.621094 C 1153.769531 379.367188 1153.910156 383.175781 1155.300781 386.710938 C 1156.609375 390.0625 1159.832031 391.453125 1163.222656 391.8125 C 1164.398438 391.921875 1166.910156 391.378906 1167.320312 392.898438 C 1167.472656 393.484375 1167.394531 394.195312 1167.394531 394.796875 C 1167.394531 396.855469 1167.394531 398.910156 1167.394531 400.964844 C 1167.394531 402.210938 1167.375 402.359375 1166.546875 403.34375"/><path style="stroke:none;fill-rule:nonzero;fill:#393536;fill-opacity:1" d="M 1506.15625 266.808594 C 1507.070312 265.921875 1509.882812 266.582031 1511.0625 266.730469 C 1512.761719 266.925781 1514.441406 267.273438 1516.0625 267.808594 C 1518.804688 268.71875 1521.34375 270.199219 1523.347656 272.296875 C 1528.300781 277.511719 1528.839844 284.796875 1528.96875 291.628906 C 1529.128906 300.148438 1528.351562 308.878906 1529.777344 317.304688 C 1530.738281 322.914062 1532.75 328.632812 1536.933594 332.667969 C 1537.367188 333.082031 1537.824219 333.484375 1538.292969 333.859375 C 1538.664062 334.148438 1538.527344 334.519531 1538.527344 334.972656 C 1538.527344 335.855469 1536.910156 336.804688 1536.292969 337.472656 C 1534.449219 339.464844 1533.054688 341.835938 1532.007812 344.335938 C 1528.289062 353.292969 1528.992188 363.28125 1528.992188 372.773438 C 1528.992188 378.707031 1529.230469 384.886719 1527.609375 390.652344 C 1525.941406 396.601562 1521.488281 400.917969 1515.574219 402.582031 C 1514.035156 403.019531 1512.445312 403.300781 1510.863281 403.460938 C 1509.597656 403.589844 1506.726562 404.230469 1505.691406 403.3125 C 1504.816406 402.539062 1505.308594 399.707031 1505.308594 398.71875 C 1505.308594 397.078125 1505.308594 395.433594 1505.308594 393.796875 C 1505.308594 392.039062 1506.933594 392.292969 1508.214844 392.210938 C 1509.894531 392.113281 1511.585938 391.828125 1513.132812 391.167969 C 1517.648438 389.207031 1518.550781 384.027344 1518.84375 379.601562 C 1519.21875 373.867188 1518.496094 368.144531 1518.191406 362.433594 C 1517.703125 352.75 1518.414062 341.25 1526.261719 334.378906 C 1520.757812 329.351562 1518.824219 321.527344 1518.367188 314.351562 C 1517.953125 307.71875 1518.941406 301.148438 1518.941406 294.539062 C 1518.941406 290.785156 1518.796875 286.976562 1517.410156 283.453125 C 1516.097656 280.09375 1512.886719 278.699219 1509.488281 278.347656 C 1508.320312 278.230469 1505.792969 278.765625 1505.394531 277.261719 C 1505.234375 276.667969 1505.308594 275.957031 1505.308594 275.351562 C 1505.308594 273.304688 1505.308594 271.242188 1505.308594 269.191406 C 1505.308594 267.9375 1505.335938 267.804688 1506.15625 266.808594"/><path style="stroke:none;fill-rule:nonzero;fill:#393536;fill-opacity:1" d="M 1223.363281 228.296875 L 1175.019531 228.296875 L 1175.019531 240.828125 L 1223.363281 240.828125 L 1223.363281 228.296875"/><path style="stroke:none;fill-rule:nonzero;fill:#393536;fill-opacity:1" d="M 1227.746094 228.296875 L 1227.746094 240.828125 L 1265.757812 240.828125 L 1265.757812 228.296875 L 1227.746094 228.296875"/><path style="stroke:none;fill-rule:nonzero;fill:#393536;fill-opacity:1" d="M 1271.597656 228.296875 L 1271.597656 240.828125 L 1357.105469 240.828125 L 1357.105469 228.296875 L 1271.597656 228.296875"/><path style="stroke:none;fill-rule:nonzero;fill:#393536;fill-opacity:1" d="M 1207.625 223.511719 L 1175.019531 223.511719 L 1175.019531 210.976562 L 1207.625 210.976562 L 1207.625 223.511719"/><path style="stroke:none;fill-rule:nonzero;fill:#393536;fill-opacity:1" d="M 1249.1875 248.140625 L 1228.015625 248.140625 L 1228.015625 260.679688 L 1249.1875 260.679688 L 1249.1875 248.140625"/><path style="stroke:none;fill-rule:nonzero;fill:#393536;fill-opacity:1" d="M 1447.378906 248.140625 L 1256.015625 248.140625 L 1256.015625 260.679688 L 1447.378906 260.679688 L 1447.378906 248.140625"/><path style="stroke:none;fill-rule:nonzero;fill:#393536;fill-opacity:1" d="M 1454.695312 248.140625 L 1454.695312 260.679688 L 1503.808594 260.679688 L 1503.808594 248.140625 L 1454.695312 248.140625"/><path style="stroke:none;fill-rule:nonzero;fill:#393536;fill-opacity:1" d="M 1425.945312 267.988281 L 1271.683594 267.988281 L 1271.683594 280.519531 L 1425.945312 280.519531 L 1425.945312 267.988281"/><path style="stroke:none;fill-rule:nonzero;fill:#393536;fill-opacity:1" d="M 1476.621094 267.988281 L 1431.789062 267.988281 L 1431.789062 280.519531 L 1476.621094 280.519531 L 1476.621094 267.988281"/><path style="stroke:none;fill-rule:nonzero;fill:#393536;fill-opacity:1" d="M 1239.441406 287.839844 L 1228.015625 287.839844 L 1228.015625 300.378906 L 1239.441406 300.378906 L 1239.441406 287.839844"/><path style="stroke:none;fill-rule:nonzero;fill:#393536;fill-opacity:1" d="M 1248.214844 287.839844 L 1248.214844 300.378906 L 1488.3125 300.378906 L 1488.3125 287.839844 L 1248.214844 287.839844"/><path style="stroke:none;fill-rule:nonzero;fill:#393536;fill-opacity:1" d="M 1494.652344 287.839844 L 1494.652344 300.378906 L 1503.808594 300.378906 L 1503.808594 287.839844 L 1494.652344 287.839844"/><path style="stroke:none;fill-rule:nonzero;fill:#393536;fill-opacity:1" d="M 1202.410156 307.691406 L 1175.019531 307.691406 L 1175.019531 320.222656 L 1202.410156 320.222656 L 1202.410156 307.691406"/><path style="stroke:none;fill-rule:nonzero;fill:#393536;fill-opacity:1" d="M 1242.371094 307.691406 L 1209.230469 307.691406 L 1209.230469 320.222656 L 1242.371094 320.222656 L 1242.371094 307.691406"/><path style="stroke:none;fill-rule:nonzero;fill:#393536;fill-opacity:1" d="M 1252.109375 307.691406 L 1252.109375 320.222656 L 1266.066406 320.222656 L 1266.066406 307.691406 L 1252.109375 307.691406"/><path style="stroke:none;fill-rule:nonzero;fill:#393536;fill-opacity:1" d="M 1387.925781 327.539062 L 1287.683594 327.539062 L 1287.683594 339.996094 L 1278.914062 339.996094 L 1278.914062 327.539062 L 1228.015625 327.539062 L 1228.015625 340.074219 L 1387.925781 340.074219 L 1387.925781 327.539062"/><path style="stroke:none;fill-rule:nonzero;fill:#393536;fill-opacity:1" d="M 1389.871094 327.539062 L 1389.871094 340.074219 L 1406.648438 340.074219 L 1406.648438 327.539062 L 1389.871094 327.539062"/><path style="stroke:none;fill-rule:nonzero;fill:#393536;fill-opacity:1" d="M 1262.339844 347.390625 L 1253.742188 347.390625 L 1253.742188 359.921875 L 1262.339844 359.921875 L 1262.339844 347.390625"/><path style="stroke:none;fill-rule:nonzero;fill:#393536;fill-opacity:1" d="M 1302.308594 347.390625 L 1268.679688 347.390625 L 1268.679688 359.921875 L 1302.308594 359.921875 L 1302.308594 347.390625"/><path style="stroke:none;fill-rule:nonzero;fill:#393536;fill-opacity:1" d="M 1448.84375 347.390625 L 1307.183594 347.390625 L 1307.183594 359.921875 L 1448.84375 359.921875 L 1448.84375 347.390625"/><path style="stroke:none;fill-rule:nonzero;fill:#393536;fill-opacity:1" d="M 1456.648438 347.390625 L 1456.648438 359.921875 L 1490.238281 359.921875 L 1490.238281 347.390625 L 1456.648438 347.390625"/><path style="stroke:none;fill-rule:nonzero;fill:#393536;fill-opacity:1" d="M 1289.632812 367.238281 L 1253.742188 367.238281 L 1253.742188 379.773438 L 1289.632812 379.773438 L 1289.632812 367.238281"/><path style="stroke:none;fill-rule:nonzero;fill:#393536;fill-opacity:1" d="M 1419.605469 367.238281 L 1295.972656 367.238281 L 1295.972656 379.773438 L 1419.605469 379.773438 L 1419.605469 367.238281"/><path style="stroke:none;fill-rule:nonzero;fill:#393536;fill-opacity:1" d="M 1434.226562 367.238281 L 1434.226562 379.773438 L 1503.808594 379.773438 L 1503.808594 367.238281 L 1434.226562 367.238281"/><path style="stroke:none;fill-rule:nonzero;fill:#393536;fill-opacity:1" d="M 1444.453125 387.089844 L 1317.898438 387.089844 L 1317.898438 399.625 L 1444.453125 399.625 L 1444.453125 387.089844"/><path style="stroke:none;fill-rule:nonzero;fill:#393536;fill-opacity:1" d="M 1308.640625 387.089844 L 1253.742188 387.089844 L 1253.742188 399.625 L 1308.640625 399.625 L 1308.640625 387.089844"/><path style="stroke:none;fill-rule:nonzero;fill:#393536;fill-opacity:1" d="M 1377.496094 419.476562 L 1228.015625 419.476562 L 1228.015625 406.933594 L 1377.496094 406.933594 L 1377.496094 419.476562"/><path style="stroke:none;fill-rule:nonzero;fill:#393536;fill-opacity:1" d="M 1193.148438 426.792969 L 1175.019531 426.792969 L 1175.019531 439.332031 L 1193.148438 439.332031 L 1193.148438 426.792969"/><path style="stroke:none;fill-rule:nonzero;fill:#393536;fill-opacity:1" d="M 1199.964844 426.792969 L 1199.964844 439.332031 L 1425.671875 439.332031 L 1425.671875 426.792969 L 1199.964844 426.792969"/><path style="stroke:none;fill-rule:nonzero;fill:#393536;fill-opacity:1" d="M 1207.625 459.183594 L 1175.019531 459.183594 L 1175.019531 446.640625 L 1207.625 446.640625 L 1207.625 459.183594"/><g clip-path="url(#clip9)" clip-rule="nonzero"><path style="stroke:none;fill-rule:nonzero;fill:#205b00;fill-opacity:1" d="M 690.191406 57.675781 L 690.191406 -12.15625 L 601.613281 -12.15625 L 601.613281 -24.570312 L 784.402344 -24.570312 L 784.402344 -12.15625 L 702.625 -12.15625 L 702.625 57.675781 L 722.535156 57.675781 L 722.535156 104.429688 L 769.421875 104.429688 L 769.421875 156.710938 L 797.710938 156.710938 C 798.769531 153.277344 800.625 150.199219 803.117188 147.730469 C 807 143.820312 812.371094 141.417969 818.324219 141.417969 C 824.273438 141.417969 829.65625 143.820312 833.527344 147.730469 C 837.4375 151.617188 839.851562 157.015625 839.851562 162.945312 C 839.851562 168.898438 837.4375 174.285156 833.527344 178.183594 C 829.65625 182.097656 824.273438 184.5 818.324219 184.5 C 812.371094 184.5 807 182.097656 803.117188 178.183594 C 800.601562 175.691406 798.730469 172.574219 797.699219 169.113281 L 769.421875 169.113281 L 769.421875 243.308594 C 772.800781 244.328125 775.824219 246.199219 778.289062 248.636719 C 782.160156 252.539062 784.574219 257.9375 784.574219 263.863281 C 784.574219 269.832031 782.160156 275.21875 778.289062 279.117188 C 774.390625 283.015625 768.984375 285.445312 763.070312 285.445312 C 757.105469 285.445312 751.726562 283.015625 747.828125 279.117188 C 743.929688 275.21875 741.519531 269.832031 741.519531 263.863281 C 741.519531 257.9375 743.929688 252.539062 747.828125 248.636719 C 750.359375 246.132812 753.472656 244.210938 756.988281 243.199219 L 756.988281 116.84375 L 710.113281 116.84375 L 710.113281 70.117188 L 682.753906 70.117188 L 682.753906 138.25 L 723.320312 138.25 L 723.320312 233.679688 L 687.6875 233.679688 L 687.6875 311.824219 C 690.46875 312.914062 693 314.582031 695.082031 316.664062 C 698.992188 320.550781 701.390625 325.9375 701.390625 331.902344 C 701.390625 337.859375 698.992188 343.230469 695.082031 347.144531 C 691.195312 351.03125 685.8125 353.429688 679.878906 353.429688 C 673.9375 353.429688 668.527344 351.03125 664.644531 347.144531 C 660.761719 343.230469 658.332031 337.859375 658.332031 331.902344 C 658.332031 325.9375 660.761719 320.550781 664.644531 316.664062 C 667.507812 313.8125 671.15625 311.746094 675.234375 310.855469 L 675.234375 221.234375 L 710.894531 221.234375 L 710.894531 150.664062 L 682.726562 150.664062 L 682.726562 180.996094 L 623.738281 180.996094 L 623.738281 216.753906 C 626.734375 217.828125 629.410156 219.566406 631.597656 221.765625 C 635.496094 225.667969 637.921875 231.050781 637.921875 236.992188 C 637.921875 242.933594 635.496094 248.320312 631.597656 252.21875 C 627.699219 256.132812 622.332031 258.558594 616.378906 258.558594 C 610.441406 258.558594 605.070312 256.132812 601.148438 252.21875 C 597.261719 248.320312 594.851562 242.933594 594.851562 236.992188 C 594.851562 231.050781 597.261719 225.667969 601.148438 221.765625 C 603.921875 219.007812 607.417969 216.996094 611.328125 216.0625 L 611.328125 168.554688 L 670.332031 168.554688 L 670.332031 106.402344 L 637.867188 106.402344 L 637.867188 143.292969 L 588.316406 143.292969 C 587.296875 146.75 585.398438 149.898438 582.894531 152.398438 C 578.996094 156.300781 573.613281 158.714844 567.679688 158.714844 C 561.738281 158.714844 556.355469 156.300781 552.457031 152.398438 C 548.558594 148.5 546.132812 143.117188 546.132812 137.175781 C 546.132812 131.222656 548.558594 125.824219 552.457031 121.921875 C 556.355469 118.035156 561.738281 115.621094 567.679688 115.621094 C 573.613281 115.621094 578.996094 118.035156 582.894531 121.921875 C 585.359375 124.402344 587.214844 127.453125 588.265625 130.863281 L 625.460938 130.863281 L 625.460938 93.964844 L 670.332031 93.964844 L 670.332031 57.675781 Z M 756.617188 270.335938 C 758.234375 271.953125 760.542969 273.015625 763.070312 273.015625 C 765.5625 273.015625 767.84375 271.953125 769.488281 270.335938 C 771.144531 268.691406 772.164062 266.386719 772.164062 263.863281 C 772.164062 261.371094 771.144531 259.0625 769.488281 257.40625 C 767.84375 255.773438 765.5625 254.738281 763.070312 254.738281 C 760.542969 254.738281 758.234375 255.773438 756.617188 257.40625 C 754.957031 259.0625 753.925781 261.371094 753.925781 263.863281 C 753.925781 266.386719 754.957031 268.691406 756.617188 270.335938 Z M 811.894531 169.40625 C 813.523438 171.035156 815.808594 172.070312 818.324219 172.070312 C 820.84375 172.070312 823.125 171.035156 824.765625 169.40625 C 826.4375 167.734375 827.445312 165.464844 827.445312 162.945312 C 827.445312 160.429688 826.4375 158.144531 824.765625 156.484375 C 823.125 154.84375 820.84375 153.832031 818.324219 153.832031 C 815.808594 153.832031 813.523438 154.84375 811.894531 156.484375 C 810.222656 158.144531 809.203125 160.429688 809.203125 162.945312 C 809.203125 165.464844 810.222656 167.734375 811.894531 169.40625 Z M 673.417969 338.335938 C 675.066406 339.992188 677.347656 341.03125 679.878906 341.03125 C 682.382812 341.03125 684.648438 339.992188 686.320312 338.335938 C 687.976562 336.675781 688.984375 334.425781 688.984375 331.902344 C 688.984375 329.382812 687.976562 327.101562 686.320312 325.457031 C 684.648438 323.785156 682.382812 322.777344 679.878906 322.777344 C 677.347656 322.777344 675.066406 323.785156 673.417969 325.457031 C 671.765625 327.101562 670.753906 329.382812 670.753906 331.902344 C 670.753906 334.425781 671.765625 336.675781 673.417969 338.335938 Z M 609.9375 243.441406 C 611.582031 245.082031 613.871094 246.105469 616.378906 246.105469 C 618.886719 246.105469 621.191406 245.082031 622.820312 243.441406 C 624.464844 241.804688 625.488281 239.527344 625.488281 236.992188 C 625.488281 234.484375 624.464844 232.21875 622.820312 230.546875 C 621.191406 228.902344 618.886719 227.894531 616.378906 227.894531 C 613.871094 227.894531 611.582031 228.902344 609.9375 230.546875 C 608.28125 232.21875 607.257812 234.484375 607.257812 236.992188 C 607.257812 239.527344 608.28125 241.804688 609.9375 243.441406 Z M 561.234375 143.621094 C 562.867188 145.253906 565.171875 146.289062 567.679688 146.289062 C 570.179688 146.289062 572.472656 145.253906 574.121094 143.621094 C 575.773438 141.976562 576.78125 139.695312 576.78125 137.175781 C 576.78125 134.65625 575.773438 132.371094 574.121094 130.703125 C 572.472656 129.058594 570.179688 128.050781 567.679688 128.050781 C 565.171875 128.050781 562.867188 129.058594 561.234375 130.703125 C 559.585938 132.371094 558.554688 134.65625 558.554688 137.175781 C 558.554688 139.695312 559.585938 141.976562 561.234375 143.621094"/></g></g></svg>